<?xml version="1.0" encoding="UTF-8" standalone="no"?>
<!-- Created with Inkscape (http://www.inkscape.org/) -->

<svg
   xmlns:dc="http://purl.org/dc/elements/1.1/"
   xmlns:cc="http://creativecommons.org/ns#"
   xmlns:rdf="http://www.w3.org/1999/02/22-rdf-syntax-ns#"
   xmlns:svg="http://www.w3.org/2000/svg"
   xmlns="http://www.w3.org/2000/svg"
   xmlns:sodipodi="http://sodipodi.sourceforge.net/DTD/sodipodi-0.dtd"
   xmlns:inkscape="http://www.inkscape.org/namespaces/inkscape"
   width="400"
   height="400"
   viewBox="0 0 400 400.00001"
   id="svg2"
   version="1.1"
   inkscape:version="0.91 r13725"
   inkscape:export-filename="F:\Iowa\InteractiveStories\Farm_Story_Images\role22.png"
   inkscape:export-xdpi="90"
   inkscape:export-ydpi="90"
   sodipodi:docname="Role_Template.svg">
  <defs
     id="defs4" />
  <sodipodi:namedview
     id="base"
     pagecolor="#ffffff"
     bordercolor="#666666"
     borderopacity="1.0"
     inkscape:pageopacity="0.0"
     inkscape:pageshadow="2"
     inkscape:zoom="1.979899"
     inkscape:cx="198.18193"
     inkscape:cy="202.86647"
     inkscape:document-units="px"
     inkscape:current-layer="layer1"
     showgrid="false"
     units="px"
     inkscape:window-width="1858"
     inkscape:window-height="1057"
     inkscape:window-x="54"
     inkscape:window-y="-8"
     inkscape:window-maximized="1" />
  <metadata
     id="metadata7">
    <rdf:RDF>
      <cc:Work
         rdf:about="">
        <dc:format>image/svg+xml</dc:format>
        <dc:type
           rdf:resource="http://purl.org/dc/dcmitype/StillImage" />
        <dc:title></dc:title>
      </cc:Work>
    </rdf:RDF>
  </metadata>
  <g
     inkscape:label="Layer 1"
     inkscape:groupmode="layer"
     id="layer1"
     transform="translate(0,-652.36216)">
    <path
       style="fill:#fff6d5;fill-opacity:1;stroke:#2b1100;stroke-width:0.83808172;stroke-opacity:1"
       id="path4138-1-1-0"
       sodipodi:type="arc"
       sodipodi:cx="787.47803"
       sodipodi:cy="257.41611"
       sodipodi:rx="96.158928"
       sodipodi:ry="96.158928"
       sodipodi:start="1.569375"
       sodipodi:end="3.1446492"
       d="m 787.6147,353.57494 a 96.158928,96.158928 0 0 1 -68.18687,-28.21982 96.158928,96.158928 0 0 1 -28.10828,-68.23293 l 96.15848,0.29392 z"
       transform="matrix(0,1,1,0,0,0)" />
    <path
       style="fill:#ffd5d5;fill-opacity:1;stroke:#2b1100;stroke-width:0.51995975;stroke-opacity:1"
       id="path4138-1-1-4"
       sodipodi:type="arc"
       sodipodi:cx="787.18414"
       sodipodi:cy="257.14502"
       sodipodi:rx="59.658585"
       sodipodi:ry="59.658585"
       sodipodi:start="1.569375"
       sodipodi:end="3.1446492"
       d="M 787.26894,316.80354 A 59.658585,59.658585 0 0 1 744.96468,299.2955 59.658585,59.658585 0 0 1 727.52584,256.96267 l 59.6583,0.18235 z"
       transform="matrix(0,1,1,0,0,0)" />
    <path
       style="fill:#fff6d5;fill-opacity:1;stroke:#2b1100;stroke-width:0.83808172;stroke-opacity:1"
       id="path4138-1-1-0-7"
       sodipodi:type="arc"
       sodipodi:cx="787.22571"
       sodipodi:cy="-148.02328"
       sodipodi:rx="96.158928"
       sodipodi:ry="96.158928"
       sodipodi:start="1.569375"
       sodipodi:end="3.1446492"
       d="M 787.36238,-51.864454 A 96.158928,96.158928 0 0 1 719.17551,-80.084271 96.158928,96.158928 0 0 1 691.06723,-148.3172 l 96.15848,0.29392 z"
       transform="matrix(0,1,-1,0,0,0)" />
    <path
       style="fill:#ffd5d5;fill-opacity:1;stroke:#2b1100;stroke-width:0.51995975;stroke-opacity:1"
       id="path4138-1-1-4-2"
       sodipodi:type="arc"
       sodipodi:cx="786.93182"
       sodipodi:cy="-148.29437"
       sodipodi:rx="59.658585"
       sodipodi:ry="59.658585"
       sodipodi:start="1.569375"
       sodipodi:end="3.1446492"
       d="m 787.01662,-88.635848 a 59.658585,59.658585 0 0 1 -42.30426,-17.508042 59.658585,59.658585 0 0 1 -17.43884,-42.33283 l 59.6583,0.18235 z"
       transform="matrix(0,1,-1,0,0,0)" />
    <circle
       style="fill:#fff6d5;fill-opacity:1;stroke:#2b1100;stroke-opacity:1"
       id="path4138"
       cx="200"
       cy="855.63495"
       r="114.73692" />
    <path
       style="fill:#deaa87;fill-opacity:1;stroke:#2b1100;stroke-width:0.51995975;stroke-opacity:1"
       id="path4138-1"
       sodipodi:type="arc"
       sodipodi:cx="199.99998"
       sodipodi:cy="-916.82129"
       sodipodi:rx="59.658585"
       sodipodi:ry="59.658585"
       sodipodi:start="0"
       sodipodi:end="3.1328145"
       d="m 259.65857,-916.82129 a 59.658585,59.658585 0 0 1 -59.39674,59.65801 59.658585,59.658585 0 0 1 -59.91813,-59.13432 l 59.65628,-0.52369 z"
       transform="scale(1,-1)" />
    <path
       style="fill:#deaa87;fill-opacity:1;stroke:#2b1100;stroke-width:0.51995975;stroke-opacity:1"
       id="path4138-1-1"
       sodipodi:type="arc"
       sodipodi:cx="200.51526"
       sodipodi:cy="-916.52643"
       sodipodi:rx="59.658585"
       sodipodi:ry="59.658585"
       sodipodi:start="1.569375"
       sodipodi:end="3.1446492"
       d="m 200.60005,-856.8679 a 59.658585,59.658585 0 0 1 -42.30426,-17.50804 59.658585,59.658585 0 0 1 -17.43884,-42.33284 l 59.65831,0.18235 z"
       transform="scale(1,-1)" />
    <path
       style="fill:none;fill-rule:evenodd;stroke:#552200;stroke-width:1px;stroke-linecap:butt;stroke-linejoin:miter;stroke-opacity:1"
       d="m 230.31478,744.77071 c -5.08705,-1.10855 -0.82107,1.83122 -1.51523,2.52538 -0.11905,0.11905 -0.42978,-0.15058 -0.50507,0 -0.22588,0.45175 0.22587,1.06348 0,1.51523 -0.10648,0.21296 -0.3986,0.29212 -0.50508,0.50508 -0.15059,0.30117 0.23809,0.77205 0,1.01015 -0.11905,0.11905 -0.38603,-0.11905 -0.50508,0 -0.11904,0.11905 0,0.33672 0,0.50508 0,0.22746 -0.0769,1.36151 0,1.51522 0.10648,0.21296 0.33672,0.33672 0.50508,0.50508 0.16836,0.16836 0.33672,0.33672 0.50508,0.50508 0.16835,0.16836 0.33671,0.33671 0.50507,0.50507 0.16836,0.16836 0.29212,0.3986 0.50508,0.50508 0.15058,0.0753 0.38603,-0.11905 0.50507,0 0.11905,0.11905 -0.11904,0.38603 0,0.50508 0.11905,0.11904 0.38603,-0.11905 0.50508,0 0.11905,0.11904 -0.11905,0.38602 0,0.50507 0.11905,0.11905 0.35449,-0.0753 0.50508,0 0.21296,0.10648 0.29211,0.3986 0.50507,0.50508 0.15059,0.0753 0.38603,-0.11905 0.50508,0 0.11905,0.11905 -0.11905,0.38603 0,0.50507 0.23809,0.2381 0.77206,-0.23809 1.01015,0 0.11905,0.11905 -0.11905,0.38603 0,0.50508 0.11905,0.11905 0.38603,-0.11905 0.50508,0 0.11905,0.11905 -0.11905,0.38603 0,0.50508 1.04502,1.04502 -0.0408,-1.59693 1.01015,0.50507 0.0753,0.15059 -0.0753,0.35449 0,0.50508 0.10648,0.21296 0.3986,0.29212 0.50508,0.50508 0.0753,0.15058 -0.11905,0.38602 0,0.50507 0.11904,0.11905 0.38603,-0.11905 0.50507,0 0.11905,0.11905 -0.11904,0.38603 0,0.50508 1.04502,1.04502 -0.0409,-1.59693 1.01016,0.50507 0.0753,0.15059 -0.0753,0.3545 0,0.50508 0.21295,0.42592 0.79719,0.58424 1.01015,1.01015 0.0753,0.15059 -0.0753,0.35449 0,0.50508 0.10648,0.21296 0.33672,0.33672 0.50507,0.50508 0.16836,0.16835 0.29212,0.39859 0.50508,0.50507 0.15059,0.0753 0.38603,-0.11905 0.50508,0 0.11904,0.11905 -0.11905,0.38603 0,0.50508 0.11904,0.11905 0.38603,-0.11905 0.50507,0 0.11905,0.11905 -0.0753,0.35449 0,0.50507 0.10648,0.21296 0.33672,0.33672 0.50508,0.50508 0.16836,0.16836 0.29212,0.3986 0.50508,0.50508 0.15058,0.0753 0.38602,-0.11905 0.50507,0 0.2381,0.23809 -0.23809,0.77205 0,1.01015 0.11905,0.11905 0.38603,-0.11905 0.50508,0 0.11905,0.11905 0,0.33672 0,0.50508 0,0.84179 0,1.68358 0,2.52538 0,0.23814 0.0229,2.50249 0,2.52538 -0.11905,0.11905 -0.38603,-0.11905 -0.50508,0 -4.8e-4,4.8e-4 7.7e-4,1.51294 0,1.51523 -0.0753,0.22587 -0.373,0.30697 -0.50507,0.50507 -0.41765,0.62647 -0.59251,1.39384 -1.01016,2.02031 -0.26414,0.39621 -0.79719,0.58423 -1.01015,1.01015 -0.15058,0.30117 0.2381,0.77206 0,1.01015 -0.11905,0.11905 -0.38603,-0.11904 -0.50508,0 -0.11904,0.11905 0.0753,0.3545 0,0.50508 -0.10647,0.21296 -0.39859,0.29212 -0.50507,0.50508 -0.0753,0.15058 0.11905,0.38602 0,0.50507 -0.11905,0.11905 -0.35449,-0.0753 -0.50508,0 -2.102,1.05101 0.53995,-0.0349 -0.50507,1.01016 -0.11905,0.11904 -0.38603,-0.11905 -0.50508,0 -0.11905,0.11904 0.0753,0.35449 0,0.50507 -0.10648,0.21296 -0.33672,0.33672 -0.50508,0.50508 -0.16836,0.16836 -0.29211,0.39859 -0.50507,0.50507 -0.15059,0.0753 -0.38603,-0.11904 -0.50508,0 -0.11905,0.11905 0.0753,0.3545 0,0.50508 -0.21296,0.42592 -0.74601,0.61394 -1.01015,1.01015 -0.20883,0.31324 -0.38603,0.65301 -0.50508,1.01016 -0.0532,0.15971 0.11905,0.38602 0,0.50507 -0.11905,0.11905 -0.38603,-0.11905 -0.50507,0 -0.11905,0.11905 0.11904,0.38603 0,0.50508 -0.11905,0.11905 -0.38603,-0.11905 -0.50508,0 -0.11905,0.11905 0.0753,0.35449 0,0.50507 -0.21296,0.42592 -0.79719,0.58424 -1.01015,1.01016 -0.15059,0.30117 0.15058,0.70898 0,1.01015 -0.10648,0.21296 -0.37301,0.30697 -0.50508,0.50508 -0.20882,0.31323 -0.23888,0.74395 -0.50508,1.01015 -0.11904,0.11905 -0.38602,-0.11905 -0.50507,0 -0.11905,0.11905 0.0753,0.35449 0,0.50507 -0.10648,0.21296 -0.3986,0.29212 -0.50508,0.50508 -0.20203,0.40406 0.20203,1.11117 0,1.51523 -0.10648,0.21296 -0.3986,0.29212 -0.50507,0.50508 -0.16138,0.32275 0.13551,1.61377 0,2.0203 -0.11905,0.35714 -0.38603,0.65301 -0.50508,1.01015 -0.10039,0.30117 0,2.54111 0,3.03046 0,0.50864 -0.0931,2.75114 0,3.03046 0.0753,0.22588 0.3986,0.29212 0.50508,0.50507 0.15058,0.30117 -0.15059,0.70899 0,1.01016 0.21295,0.42592 0.79719,0.58423 1.01015,1.01015 0.0753,0.15058 -0.11905,0.38603 0,0.50508 0.11905,0.11904 0.35449,-0.0753 0.50507,0 0.13411,0.067 1.44818,1.38112 1.51523,1.51523 0.0753,0.15058 -0.11904,0.38602 0,0.50507 0.2381,0.2381 0.70899,-0.15058 1.01016,0 0.21295,0.10648 0.29211,0.3986 0.50507,0.50508 0.30117,0.15058 0.70899,-0.15059 1.01015,0 0.21296,0.10648 0.29212,0.39859 0.50508,0.50507 0.30117,0.15059 0.70898,-0.15058 1.01015,0 0.42592,0.21296 0.5584,0.85957 1.01016,1.01016 0.31943,0.10648 0.69071,-0.10648 1.01015,0 0.22588,0.0753 0.27409,0.44733 0.50507,0.50507 0.42693,0.10673 3.23489,-0.15032 3.53554,0 0.21296,0.10648 0.29212,0.3986 0.50507,0.50508 0.15059,0.0753 0.3545,-0.0753 0.50508,0 0.21296,0.10648 0.27409,0.44733 0.50508,0.50508 0.48999,0.12249 1.02523,-0.1225 1.51523,0 0.46197,0.11549 0.56802,0.8333 1.01015,1.01015 0.64451,0.2578 1.33962,0.36894 2.0203,0.50507 0.16509,0.033 0.3545,-0.0753 0.50508,0 0.21296,0.10648 0.2792,0.42979 0.50508,0.50508 0.31943,0.10648 0.69071,-0.10648 1.01015,0 0.45175,0.15059 0.5584,0.85957 1.01015,1.01015 2.18679,0.72893 -0.18564,-0.96555 2.02031,0.50508 0.1981,0.13207 0.3146,0.36222 0.50507,0.50508 0.48562,0.36421 1.086,0.58092 1.51523,1.01015 2.35917,2.35916 -2.67291,-0.60343 2.02031,2.52538 0.44298,0.29532 1.03903,0.26698 1.51523,0.50508 0.21295,0.10648 0.29211,0.39859 0.50507,0.50507 0.15059,0.0753 0.35449,-0.0753 0.50508,0 1.11675,0.55838 0.15673,0.31347 0.50507,1.01015 0.10648,0.21296 0.37301,0.30697 0.50508,0.50508 0.74524,1.11786 0.20447,1.14647 1.51523,2.02031 0.14008,0.0934 0.35449,-0.0753 0.50508,0 0.21295,0.10648 0.29211,0.39859 0.50507,0.50507 0.30117,0.15059 0.77206,-0.23809 1.01015,0 0.0229,0.0229 0,2.28724 0,2.52538 0,0.16836 -0.11904,0.38603 0,0.50508 0.11905,0.11905 0.38603,-0.11905 0.50508,0 0.11905,0.11905 -0.0753,0.35449 0,0.50508 0.10648,0.21295 0.33672,0.33671 0.50508,0.50507 0.48119,0.48119 0.85726,0.75079 1.01015,1.51523 0.099,0.49527 0,1.01015 0,1.51523 0,0.33672 -0.10648,0.69071 0,1.01015 0.0753,0.22588 0.3986,0.29212 0.50508,0.50508 0.0938,0.18766 0,3.10464 0,3.53553 0,2.35703 0,4.71405 0,7.07107 0,1.34687 0,2.69374 0,4.04061 0,0.2822 0.0993,2.22732 0,2.52538 -0.11905,0.35714 -0.38603,0.65301 -0.50508,1.01015 -0.095,0.28497 0,1.18334 0,1.51523 0,1.34687 0,2.69374 0,4.04061 0,0.60388 -0.10988,2.70082 0,3.03046 0.23809,0.71429 0.77206,1.30602 1.01015,2.02031 0.10648,0.31943 -0.15058,0.70898 0,1.01015 0.21296,0.42592 0.7972,0.58423 1.01015,1.01015 0.0753,0.15059 -0.11904,0.38603 0,0.50508 0.11905,0.11905 0.38603,-0.11905 0.50508,0 0.11905,0.11905 -0.11905,0.38603 0,0.50507 0.11905,0.11905 0.38603,-0.11904 0.50508,0 0.11904,0.11905 -0.11905,0.38603 0,0.50508 0.11904,0.11905 0.38603,-0.11905 0.50507,0 0.11905,0.11905 -0.11904,0.38603 0,0.50508 0.11905,0.11904 0.38603,-0.11905 0.50508,0 0.11905,0.11904 -0.11905,0.38603 0,0.50507 0.11905,0.11905 0.38603,-0.11904 0.50508,0 0.11904,0.11905 -0.11905,0.38603 0,0.50508 0.11904,0.11905 0.38602,-0.11905 0.50507,0 0.11905,0.11905 -0.11905,0.38603 0,0.50508 0.25254,0.25253 1.26269,-0.25254 1.51523,0 0.11905,0.11904 -0.11905,0.38602 0,0.50507 0.1382,0.1382 1.74631,-0.137 2.02031,0 0.21296,0.10648 0.29211,0.3986 0.50507,0.50508 0.15059,0.0753 0.38603,-0.11905 0.50508,0 0.11905,0.11905 -0.11905,0.38603 0,0.50507 0.11905,0.11905 0.33672,0 0.50508,0 1.01015,0 2.0203,0 3.03045,0 0.23815,0 2.50249,0.0229 2.52538,0 0.11905,-0.11904 -0.11904,-0.38602 0,-0.50507 0.11905,-0.11905 0.33672,0 0.50508,0 0.33672,0 0.70898,0.15058 1.01015,0 0.15059,-0.0753 -0.11904,-0.38603 0,-0.50508 0.10326,-0.10325 1.31497,0.10013 1.51523,0 0.21296,-0.10648 0.29212,-0.3986 0.50508,-0.50507 0.31745,-0.15873 1.70285,0.15872 2.0203,0 0.21296,-0.10648 0.29212,-0.3986 0.50508,-0.50508 0.15058,-0.0753 0.33672,0 0.50508,0 0.52251,0 0.69809,-0.11905 1.01015,0.50508 2.43898,4.87797 -0.65069,-0.94193 0.50507,2.52538 0.0753,0.22587 0.42979,0.2792 0.50508,0.50507 0.10648,0.31944 -0.10648,0.69072 0,1.01016 0.0753,0.22587 0.42978,0.27919 0.50508,0.50507 7.6e-4,0.002 -4.9e-4,1.51475 0,1.51523 0.11904,0.11905 0.38603,-0.11905 0.50507,0 0.11905,0.11905 0,0.33672 0,0.50508 0,0.16836 0,0.33671 0,0.50507 0,1.34687 0,2.69374 0,4.04061 0,0.16836 0,0.33672 0,0.50508 0,0.16836 -0.11904,0.38603 0,0.50508 0.11905,0.11904 0.38603,-0.11905 0.50508,0 0.11905,0.11904 0,0.33671 0,0.50507 0,0.42326 -0.10733,2.31072 0,2.52538 0.0753,0.15059 0.35449,-0.0753 0.50508,0 0.21295,0.10648 0.39859,0.29212 0.50507,0.50508 0.20203,0.40406 -0.20203,1.11117 0,1.51523 0.10648,0.21296 0.3986,0.29212 0.50508,0.50507 0.0753,0.15059 -0.0753,0.3545 0,0.50508 0.10648,0.21296 0.3986,0.29212 0.50507,0.50508 0.0753,0.15058 -0.0753,0.35449 0,0.50507 0.10648,0.21296 0.3986,0.29212 0.50508,0.50508 0.0753,0.15058 -0.0753,0.35449 0,0.50508 0.10648,0.21296 0.3986,0.29211 0.50508,0.50507 0.0753,0.15059 -0.0753,0.35449 0,0.50508 0.10648,0.21296 0.42978,0.2792 0.50507,0.50508 0.10648,0.31943 -0.10648,0.69071 0,1.01015 0.11401,0.34201 1.32232,1.1294 1.51523,1.51523 0.15059,0.30117 -0.23809,0.77205 0,1.01015 0.11905,0.11905 0.38603,-0.11905 0.50508,0 0.11905,0.11905 -0.11905,0.38603 0,0.50508 0.11905,0.11904 0.38603,-0.11905 0.50507,0 0.11905,0.11904 -0.11904,0.38602 0,0.50507 0.11905,0.11905 0.38603,-0.11905 0.50508,0 0.11905,0.11905 -0.0753,0.35449 0,0.50508 0.10648,0.21296 0.33672,0.33672 0.50508,0.50507 0.16836,0.16836 0.29211,0.3986 0.50507,0.50508 0.15059,0.0753 0.38603,-0.11905 0.50508,0 0.11905,0.11905 -0.11905,0.38603 0,0.50508 0.11905,0.11904 0.38603,-0.11905 0.50508,0 0.11904,0.11904 -0.11905,0.38603 0,0.50507 0.11904,0.11905 0.35449,-0.0753 0.50507,0 0.21296,0.10648 0.33672,0.33672 0.50508,0.50508 0.16836,0.16836 0.3986,0.29212 0.50507,0.50508 0.0753,0.15058 -0.11904,0.38602 0,0.50507 0.11905,0.11905 0.3545,-0.0753 0.50508,0 0.21296,0.10648 0.29212,0.3986 0.50508,0.50508 0.15058,0.0753 0.38603,-0.11905 0.50507,0 0.11905,0.11905 -0.11904,0.38603 0,0.50507 0.11905,0.11905 0.38603,-0.11904 0.50508,0 0.11905,0.11905 -0.11905,0.38603 0,0.50508 0.2381,0.2381 0.77206,-0.23809 1.01015,0 0.11905,0.11905 -0.11905,0.38603 0,0.50508 0.2381,0.23809 1.01016,-0.33672 1.01016,0 0,0.16836 -0.50508,-0.16836 -0.50508,0 0,0.62412 0.7083,0.50507 1.01015,0.50507"
       id="path4235"
       inkscape:connector-curvature="0" />
    <path
       style="fill:#deaa87;fill-opacity:1;stroke:#552200;stroke-width:0.50507629;stroke-opacity:1"
       d="m 304.42851,244.63365 c -3.77144,-1.95664 -7.82341,-6.71982 -10.07361,-11.84174 -0.79327,-1.80564 -1.63405,-3.66493 -1.86839,-4.13173 -0.23434,-0.46681 -0.55562,-2.39873 -0.71395,-4.29315 -0.33146,-3.96591 -1.13283,-8.35799 -1.90546,-10.44319 -0.5125,-1.38316 -0.63484,-1.42963 -2.95365,-1.12204 -1.33045,0.1765 -3.36695,0.65535 -4.52555,1.06413 -2.72757,0.96234 -4.95734,0.9393 -8.1981,-0.0847 -3.11209,-0.98337 -6.63,-4.11954 -7.20496,-6.42313 -0.21796,-0.87326 -0.412,-8.29712 -0.43119,-16.49748 -0.0343,-14.67058 -0.0531,-14.93294 -1.17132,-16.35682 -0.62503,-0.7959 -1.13642,-2.04847 -1.13642,-2.78348 0,-1.00578 -0.35651,-1.47095 -1.44109,-1.88033 -0.80531,-0.30397 -1.73514,-1.20826 -2.1076,-2.04971 -0.41452,-0.93647 -1.38819,-1.81841 -2.57534,-2.33273 -1.04986,-0.45483 -2.14654,-1.27111 -2.43706,-1.81396 -0.55506,-1.03713 -3.16445,-3.08226 -4.21031,-3.29986 -0.33722,-0.0702 -1.24818,-0.38796 -2.02436,-0.70622 -0.77618,-0.31825 -1.96942,-0.71874 -2.65165,-0.88998 -0.68223,-0.17122 -1.24042,-0.48817 -1.24042,-0.70431 0,-0.39921 -1.16122,-0.6903 -5.96097,-1.49431 -1.47289,-0.24672 -2.95024,-0.66424 -3.283,-0.92783 -0.33276,-0.26359 -1.41689,-0.74043 -2.40919,-1.05966 -2.93391,-0.94385 -5.11373,-3.58792 -5.39814,-6.54781 -0.32221,-3.35337 0.71353,-9.03617 1.92843,-10.58066 0.5394,-0.68575 0.98074,-1.55709 0.98074,-1.93631 0,-0.37923 0.17828,-0.6895 0.39618,-0.6895 0.21789,0 0.79778,-0.67987 1.28864,-1.51083 0.49085,-0.83095 1.70953,-2.38378 2.70817,-3.45073 3.86534,-4.12974 6.1881,-9.0107 6.20252,-13.03369 0.0109,-3.03044 -0.042,-3.15116 -2.51429,-5.74334 -1.38896,-1.45631 -2.52538,-2.95321 -2.52538,-3.32645 0,-0.37324 -0.45457,-0.9219 -1.01016,-1.21923 -0.55558,-0.29734 -1.01015,-0.86893 -1.01015,-1.2702 0,-0.40127 -0.85231,-1.17173 -1.89403,-1.71213 -1.04172,-0.54041 -2.65215,-1.62533 -3.57874,-2.41094 l -1.68469,-1.428384 0.92708,-3.154467 c 0.50989,-1.734957 1.19396,-3.154782 1.52015,-3.155167 0.70132,-8.28e-4 9.3388,2.938393 13.27501,4.517309 1.51602,0.608116 5.37985,2.445059 8.58629,4.082089 28.64448,14.62428 49.88267,41.07752 58.14574,72.42344 4.41861,16.76195 4.76487,36.67748 0.93801,53.95047 -0.96197,4.34195 -3.44591,12.56853 -4.68414,15.51342 -0.61468,1.46189 -0.67175,1.48268 -2.07365,0.75536 z"
       id="path4237"
       inkscape:connector-curvature="0"
       transform="translate(0,652.36216)" />
    <path
       style="fill:none;fill-rule:evenodd;stroke:#552200;stroke-width:1px;stroke-linecap:butt;stroke-linejoin:miter;stroke-opacity:1"
       d="m 93.944187,810.43063 c 0,0.67343 0,1.34687 0,2.0203 0.168359,0 0.386028,-0.11905 0.505076,0 0.119048,0.11905 -0.07529,0.35449 0,0.50508 0.106479,0.21296 0.398597,0.29211 0.505076,0.50507 0.348341,0.69668 -0.611675,0.45178 0.505077,1.01016 0.150584,0.0753 0.354491,-0.0753 0.505076,0 0.212959,0.10647 0.336717,0.33671 0.505076,0.50507 0.168359,0.16836 0.398597,0.29212 0.505076,0.50508 0.07529,0.15058 -0.119047,0.38603 0,0.50507 0.238096,0.2381 0.772058,-0.23809 1.010153,0 0.119048,0.11905 -0.119048,0.38603 0,0.50508 0.01624,0.0162 1.392734,0 1.515229,0 1.346874,0 -0.168359,-0.16836 0.505074,0.50508 0.10326,0.10325 1.31497,-0.10013 1.51523,0 0.42592,0.21296 0.58424,0.79719 1.01015,1.01015 0.26781,0.13391 2.18178,-0.11454 2.52538,0 0.22588,0.0753 0.29212,0.3986 0.50508,0.50508 0.15059,0.0753 0.33672,0 0.50508,0 0.16836,0 0.33671,0 0.50507,0 0.67344,0 1.34687,0 2.02031,0 0.33672,0 0.68349,-0.0817 1.01015,0 0.36522,0.0913 0.65301,0.38602 1.01015,0.50507 0.15972,0.0532 0.34175,-0.0408 0.50508,0 0.5165,0.12913 0.99317,0.40067 1.51523,0.50508 0.66036,0.13207 1.34687,0 2.0203,0 1.85195,0 3.7039,0 5.55584,0 0.53066,0 2.02417,-0.10024 2.52538,0 3.05778,0.61155 0.20927,0.50507 2.52539,0.50507 1.51522,0 3.03045,0 4.54568,0 0.50508,0 1.01015,0 1.51523,0 0.50508,0 1.01996,-0.0991 1.51523,0 0.36915,0.0738 0.64493,0.41378 1.01015,0.50508 0.3973,0.0993 2.50522,0 3.03046,0 0.16836,0 0.35449,-0.0753 0.50508,0 0.21296,0.10648 0.29211,0.3986 0.50507,0.50508 0.30117,0.15058 0.77206,-0.2381 1.01016,0 0.11904,0.11904 -0.0753,0.35449 0,0.50507 0.10647,0.21296 0.39859,0.29212 0.50507,0.50508 0.0753,0.15058 -0.11905,0.38603 0,0.50508 0.11905,0.11904 0.38603,-0.11905 0.50508,0 0.11905,0.11904 -0.0532,0.34535 0,0.50507 0.11905,0.35714 0.29625,0.69692 0.50507,1.01015 0.13208,0.19811 0.33672,0.33672 0.50508,0.50508 0.16836,0.50508 0.26698,1.03904 0.50508,1.51523 0.10648,0.21296 0.42978,0.2792 0.50507,0.50508 0.15972,0.47915 0,1.01015 0,1.51522 0,0.8418 0,1.68359 0,2.52539 0,0.23814 0.0229,2.50249 0,2.52538 -0.11904,0.11905 -0.38603,-0.11905 -0.50507,0 -0.11905,0.11905 0.11904,0.38603 0,0.50507 -0.11905,0.11905 -0.38603,-0.11904 -0.50508,0 -0.11905,0.11905 0.11905,0.38603 0,0.50508 -0.2662,0.2662 -0.69692,0.29625 -1.01015,0.50508 -0.39622,0.26414 -0.61394,0.74601 -1.01015,1.01015 -0.31324,0.20882 -0.69692,0.29625 -1.01016,0.50508 -0.1981,0.13207 -0.30697,0.373 -0.50507,0.50507 -0.31324,0.20882 -0.70899,0.2792 -1.01016,0.50508 -0.38095,0.28571 -0.61393,0.74601 -1.01015,1.01015 -0.14008,0.0934 -0.38603,-0.11905 -0.50508,0 -0.26619,0.2662 -0.23887,0.74395 -0.50507,1.01015 -0.2662,0.2662 -0.69692,0.29626 -1.01015,0.50508 -0.19811,0.13207 -0.3146,0.36222 -0.50508,0.50508 -0.48562,0.36421 -1.02961,0.64593 -1.51523,1.01015 -0.19048,0.14286 -0.2792,0.42978 -0.50508,0.50507 -0.31943,0.10648 -0.72998,-0.18677 -1.01015,0 -0.31323,0.20883 -0.23888,0.74396 -0.50507,1.01016 -0.2662,0.2662 -0.70899,0.2792 -1.01016,0.50507 -0.38095,0.28572 -0.6292,0.72444 -1.01015,1.01016 -0.30117,0.22587 -0.69692,0.29625 -1.01015,0.50507 -0.19811,0.13207 -0.33672,0.33672 -0.50508,0.50508 -0.33672,0.33672 -0.72444,0.6292 -1.01015,1.01015 -0.45175,0.60234 -0.59251,1.39384 -1.01015,2.02031 -0.13207,0.1981 -0.3986,0.29211 -0.50508,0.50507 -0.62199,1.24398 1.4661,-0.45595 -0.50508,1.51523 -0.26619,0.2662 -0.81646,0.18226 -1.01015,0.50508 -0.35714,0.59524 -0.28556,1.36176 -0.50507,2.0203 -0.11905,0.35715 -0.38603,0.65301 -0.50508,1.01015 -0.0532,0.15972 0.0532,0.34536 0,0.50508 -0.11905,0.35714 -0.29625,0.69692 -0.50508,1.01015 -0.13207,0.19811 -0.44733,0.27409 -0.50507,0.50508 -0.12947,0.51785 0.17698,2.49952 0,3.03046 -0.0753,0.22587 -0.42979,0.2792 -0.50508,0.50507 -0.10648,0.31944 0,0.67344 0,1.01016 0,0.84179 0,1.68358 0,2.52538 0,0.84179 0,1.68359 0,2.52538 0,0.50508 -0.099,1.01996 0,1.51523 -0.30442,0.91416 0.81819,0.93935 1.01015,1.51523 0.10648,0.31943 -0.066,0.67997 0,1.01015 0.10441,0.52206 0.37595,0.99873 0.50508,1.51523 0.0408,0.16333 -0.0753,0.35449 0,0.50507 0.10648,0.21296 0.373,0.30697 0.50508,0.50508 0.88264,1.32397 0.18878,0.88265 1.01015,2.52538 0.10648,0.21296 0.44733,0.27409 0.50507,0.50508 0.1225,0.48999 -0.12249,1.02523 0,1.51523 0.0577,0.23098 0.37301,0.30697 0.50508,0.50507 0.20882,0.31324 0.38603,0.65301 0.50508,1.01016 0.21951,0.65853 0.28556,1.36176 0.50507,2.0203 0.11905,0.35714 0.33672,0.67344 0.50508,1.01015 0.33672,0.67344 0.6366,1.36659 1.01015,2.02031 0.30117,0.52704 0.73868,0.97229 1.01015,1.51523 0.0753,0.15058 -0.0532,0.34535 0,0.50507 0.11905,0.35715 0.36527,0.66062 0.50508,1.01016 0.19773,0.49431 0.30735,1.02091 0.50508,1.51523 0.13981,0.34953 0.38603,0.653 0.50507,1.01015 0.0532,0.15972 -0.0408,0.34174 0,0.50507 0.12913,0.5165 0.37595,0.99873 0.50508,1.51523 0.1225,0.49 -0.1225,1.02524 0,1.51523 0.0913,0.36522 0.41377,0.64493 0.50508,1.01015 0.0817,0.32667 0,0.67344 0,1.01016 0,0.50507 0,1.01015 0,1.51523 0,1.01015 0,2.0203 0,3.03045 0,2.02031 0,4.04061 0,6.06092 0,0.42294 0.096,2.14129 0,2.52538 -0.0913,0.36522 -0.38603,0.65301 -0.50508,1.01015 -0.10648,0.31944 0,0.67344 0,1.01015 0,0.8418 0,1.68359 0,2.52539 0,2.35702 0,4.71404 0,7.07106 0,0.67344 0,1.34687 0,2.02031 0,0.33672 0.10648,0.69071 0,1.01015 -1.21949,3.65848 0.14561,-0.79631 -1.01015,1.51523 -0.0753,0.15059 0.0753,0.35449 0,0.50508 -0.10648,0.21296 -0.33672,0.33671 -0.50508,0.50507 -0.16836,0.16836 -0.29212,0.3986 -0.50508,0.50508 -0.15058,0.0753 -0.38602,-0.11905 -0.50507,0 -0.11905,0.11905 0.11905,0.38603 0,0.50508 -0.11905,0.11904 -0.42979,-0.15059 -0.50508,0 -0.15058,0.30116 0.15059,0.70898 0,1.01015 -0.0753,0.15058 -0.38603,-0.11905 -0.50507,0 -0.61518,0.61517 -0.23659,1.12845 -1.01016,1.51523 -0.15058,0.0753 -0.35449,-0.0753 -0.50507,0 -0.42592,0.21296 -0.61394,0.74601 -1.01016,1.01015 -0.31323,0.20882 -0.65301,0.38603 -1.01015,0.50508 -0.15972,0.0532 -0.38603,-0.11905 -0.50507,0 -0.11905,0.11904 0.11904,0.38602 0,0.50507 -0.2381,0.2381 -0.77206,-0.23809 -1.01016,0 -0.11904,0.11905 0.0753,0.35449 0,0.50508 -0.10648,0.21296 -0.39859,0.29212 -0.50507,0.50507 -0.0753,0.15059 0.16836,0.50508 0,0.50508 -0.16836,0 0.16836,-0.50508 0,-0.50508 -0.2381,0 -0.33672,0.33672 -0.50508,0.50508 -0.2659,0.26591 -1.38035,1.24548 -1.51523,1.51523 -0.49428,0.98857 0.76193,0.25685 1.01015,0.50508 0.0229,0.0229 0,2.28723 0,2.52538"
       id="path4239"
       inkscape:connector-curvature="0" />
    <path
       style="fill:#deaa87;fill-opacity:1;stroke:#552200;stroke-width:0.50507629;stroke-opacity:1"
       d="M 112.42702,276.151 C 94.592633,254.75694 84.965764,226.48674 86.138332,198.9518 c 0.310523,-7.29188 1.674698,-17.21159 3.160381,-22.98097 1.405722,-5.45886 4.272518,-13.88959 4.723034,-13.88959 0.242565,0 1.083497,0.53364 1.868739,1.18587 1.178441,0.97882 2.480842,1.55219 4.710704,2.07384 0.1389,0.0325 0.7277,0.32373 1.30844,0.6472 0.58074,0.32347 1.48988,0.60953 2.02031,0.63569 3.40072,0.16771 5.79035,0.47665 7.73273,0.99969 1.22246,0.32919 4.2908,0.58475 6.81853,0.56792 5.14713,-0.0343 13.44575,0.3434 17.12366,0.77932 2.16618,0.25674 2.56691,0.51039 3.73857,2.36643 1.20679,1.91168 2.4247,7.96246 1.82068,9.04545 -0.11387,0.20416 -1.70882,1.44285 -3.54433,2.75265 -1.8355,1.30979 -4.04023,3.0262 -4.89938,3.81423 -0.85915,0.78804 -2.07348,1.56273 -2.69851,1.72153 -0.62504,0.1588 -1.13643,0.44286 -1.13643,0.63124 0,0.18838 -1.0796,1.15589 -2.39911,2.15002 -1.31951,0.99414 -2.8515,2.69046 -3.40443,3.76962 -0.55292,1.07915 -1.20354,2.10496 -1.44581,2.27958 -0.60553,0.43643 -2.32235,5.25334 -2.85712,8.01627 -0.56605,2.92457 -0.6235,9.75612 -0.0873,10.37932 0.22707,0.2639 1.05115,2.18446 1.83129,4.2679 1.85314,4.949 2.36437,6.16961 4.24122,10.1263 3.64317,7.68034 3.82175,9.08304 3.3519,26.32925 l -0.3715,13.63655 -2.01847,2.35434 c -1.11015,1.29488 -2.95585,2.99254 -4.10154,3.77258 -1.14568,0.78003 -2.7984,2.10888 -3.67269,2.95299 l -1.58962,1.53474 -3.93529,-4.72076 z"
       id="path4241"
       inkscape:connector-curvature="0"
       transform="translate(0,652.36216)" />
    <circle
       style="fill:#000000;fill-opacity:1;stroke:#ffffff;stroke-width:0.69218868;stroke-opacity:1"
       id="path4243"
       cx="172.73608"
       cy="809.9256"
       r="8.740202" />
    <circle
       style="fill:#000000;fill-opacity:1;stroke:#ffffff;stroke-width:0.69218868;stroke-opacity:1"
       id="path4243-3"
       cx="228.29448"
       cy="809.92554"
       r="8.740202" />
    <circle
       style="fill:#ffffff;fill-opacity:1;stroke:#000000;stroke-width:0.69218868;stroke-opacity:1"
       id="path4243-2"
       cx="181.82745"
       cy="900.33417"
       r="8.740202" />
    <circle
       style="fill:#ffffff;fill-opacity:1;stroke:#000000;stroke-width:0.69218868;stroke-opacity:1"
       id="path4243-2-1"
       cx="215.16249"
       cy="900.33423"
       r="8.740202" />
  </g>
</svg>
